<?xml version="1.0" standalone="no"?>
<!DOCTYPE svg PUBLIC "-//W3C//DTD SVG 20010904//EN"
 "http://www.w3.org/TR/2001/REC-SVG-20010904/DTD/svg10.dtd">
<svg version="1.0" xmlns="http://www.w3.org/2000/svg"
 width="128.000000pt" height="128.000000pt" viewBox="0 0 128.000000 128.000000"
 preserveAspectRatio="xMidYMid meet">
<metadata>
Created by potrace 1.14, written by Peter Selinger 2001-2017
</metadata>
<g transform="translate(0.000000,128.000000) scale(0.100000,-0.100000)"
fill="#000000" stroke="none">
<path d="M0 640 l0 -640 640 0 640 0 0 640 0 640 -640 0 -640 0 0 -640z m304
488 c3 -13 11 -74 17 -136 12 -112 11 -113 -11 -137 -29 -31 -37 -25 -20 15
11 26 11 47 0 116 -12 81 -20 98 -37 72 -5 -7 -23 -26 -41 -42 l-32 -30 0 28
c0 19 15 43 51 82 29 30 56 54 60 54 5 0 11 -10 13 -22z m-29 -168 c5 -51 4
-75 -6 -86 -7 -9 -11 -38 -10 -75 1 -44 -2 -64 -14 -76 -26 -25 -34 -5 -46
114 l-12 111 33 41 c18 22 37 41 41 41 4 0 10 -32 14 -70z m333 -36 c26 -45
32 -66 32 -114 0 -62 -8 -69 -67 -70 -32 0 -29 -11 13 -51 l36 -34 -7 -160
c-3 -88 -6 -171 -6 -185 l0 -25 -13 24 c-7 13 -24 30 -37 37 -19 10 -20 13 -6
14 15 0 17 12 17 102 l0 103 -70 121 c-38 67 -70 124 -70 128 0 3 21 17 46 32
37 22 44 31 39 48 -3 12 -8 36 -12 54 -6 32 -5 32 33 32 37 0 41 -4 72 -56z
m285 24 c165 -25 185 -35 226 -121 37 -77 36 -89 -8 -119 -37 -27 -39 -31 -48
-100 l-8 -72 -55 -17 -55 -16 -3 -46 c-2 -24 3 -60 10 -78 27 -64 -16 -249
-55 -236 -5 1 -22 25 -37 53 l-27 49 9 180 c8 159 16 210 32 194 3 -2 8 -80
12 -172 4 -92 11 -170 16 -173 4 -3 8 68 8 158 l0 164 45 12 c61 16 95 66 95
139 0 43 -5 58 -27 83 -25 28 -40 33 -145 52 -65 12 -120 19 -123 16 -4 -3 1
-20 9 -37 16 -30 15 -33 -13 -88 -16 -32 -47 -89 -70 -128 l-41 -70 0 42 c0
33 7 50 30 76 35 40 38 57 10 57 -18 0 -20 7 -20 58 0 45 -6 67 -30 107 -16
28 -30 53 -30 58 0 10 119 0 293 -25z m-75 -177 c-12 -20 -30 -48 -39 -62 -11
-15 -31 -94 -49 -185 -17 -87 -32 -168 -35 -180 -2 -11 -16 -26 -30 -32 l-25
-12 0 96 0 96 86 169 c70 136 90 167 101 158 11 -10 9 -18 -9 -48z m-138 -39
c0 -5 -13 -20 -28 -35 l-29 -28 -28 28 -27 28 43 6 c24 3 50 7 57 7 6 1 12 -2
12 -6z m470 -61 c0 -38 -33 -100 -57 -109 -21 -6 -15 33 7 53 11 10 20 30 20
45 0 22 15 50 27 50 2 0 3 -17 3 -39z m-40 -15 c0 -8 -4 -18 -10 -21 -5 -3
-10 3 -10 14 0 12 5 21 10 21 6 0 10 -6 10 -14z m100 -289 c0 -17 -61 -110
-67 -103 -4 4 58 116 64 116 2 0 3 -6 3 -13z m-80 -127 c0 -14 -75 -86 -125
-120 -64 -44 -199 -100 -242 -100 -15 0 -15 2 -3 13 21 20 143 69 134 55 -4
-7 8 -1 26 12 18 13 30 18 26 11 -13 -20 106 64 144 102 41 40 40 40 40 27z"/>
<path d="M605 710 c3 -5 13 -10 21 -10 8 0 12 5 9 10 -3 6 -13 10 -21 10 -8 0
-12 -4 -9 -10z"/>
</g>
</svg>
